<?xml version="1.0" encoding="UTF-8" standalone="no"?>
<!-- Created with Inkscape (http://www.inkscape.org/) -->

<svg
   xmlns:dc="http://purl.org/dc/elements/1.1/"
   xmlns:cc="http://creativecommons.org/ns#"
   xmlns:rdf="http://www.w3.org/1999/02/22-rdf-syntax-ns#"
   xmlns:svg="http://www.w3.org/2000/svg"
   xmlns="http://www.w3.org/2000/svg"
   xmlns:sodipodi="http://sodipodi.sourceforge.net/DTD/sodipodi-0.dtd"
   xmlns:inkscape="http://www.inkscape.org/namespaces/inkscape"
   id="svg2"
   version="1.1"
   inkscape:version="0.48.2 r9819"
   width="128"
   height="128"
   sodipodi:docname="icon.svg">
  <metadata
     id="metadata8">
    <rdf:RDF>
      <cc:Work
         rdf:about="">
        <dc:format>image/svg+xml</dc:format>
        <dc:type
           rdf:resource="http://purl.org/dc/dcmitype/StillImage" />
        <dc:title></dc:title>
      </cc:Work>
    </rdf:RDF>
  </metadata>
  <defs
     id="defs6" />
  <sodipodi:namedview
     pagecolor="#ffffff"
     bordercolor="#666666"
     borderopacity="1"
     objecttolerance="10"
     gridtolerance="10"
     guidetolerance="10"
     inkscape:pageopacity="0"
     inkscape:pageshadow="2"
     inkscape:window-width="1920"
     inkscape:window-height="1003"
     id="namedview4"
     showgrid="false"
     inkscape:zoom="3.6875"
     inkscape:cx="95.093166"
     inkscape:cy="56.877569"
     inkscape:window-x="-9"
     inkscape:window-y="-9"
     inkscape:window-maximized="1"
     inkscape:current-layer="svg2" />
  <g
     id="g3001"
     transform="translate(-43.661017,-34.169492)"
     inkscape:export-filename="D:\Libraries\Documents\HTML\Quote on New Tab\icon16.png"
     inkscape:export-xdpi="39.044117"
     inkscape:export-ydpi="39.044117">
    <path
       style="fill:#ffffff;stroke:none"
       d="m 106.51338,119.62338 -18.440681,0 0,-18.44068 0,-18.440675 18.440681,0 18.44068,0 0,18.440675 0,18.44068 -18.44068,0 z m 2.67738,-13.25424 c 0.15389,0 0.83129,-0.55149 1.50533,-1.22553 l 1.22552,-1.22552 0.3197,-1.1516 0.3197,-1.15159 0.002,-2.665247 0.002,-2.66525 -2.01695,0 -2.01695,0 0,2.16101 0,2.161017 1.03137,0 1.03137,0 -0.18847,0.93644 c -0.10366,0.51504 -0.25056,1.15765 -0.32643,1.42802 l -0.13796,0.49158 -0.85067,0.71579 -0.85067,0.71579 0.33605,0.73755 0.33605,0.73754 0.2798,0 z m 6.58162,0 c 0.12618,0 0.69437,-0.40823 1.26264,-0.90718 l 1.03322,-0.90718 0.45837,-0.88639 0.45838,-0.8864 0.14336,-3.248797 0.14337,-3.24879 -2.05714,0 -2.05714,0 0,2.16101 0,2.161017 0.86441,0 0.86441,0 0,0.87871 0,0.87872 -0.43056,0.83261 c -0.23681,0.45793 -0.71442,1.03143 -1.06137,1.27444 l -0.63081,0.44184 0.38972,0.72819 c 0.21434,0.40051 0.49296,0.7282 0.61914,0.7282 z m -19.920021,-0.28814 2.01695,0 0,-2.16101 0,-2.16102 -0.90188,0 -0.90188,0 0.15321,-1.3593 0.15322,-1.359287 0.92714,-0.82841 0.92714,-0.8284 -0.37123,-0.69365 c -0.20418,-0.38152 -0.47671,-0.69366 -0.60562,-0.69366 -0.12891,0 -0.8048,0.55106 -1.50197,1.22458 l -1.26758,1.22457 -0.32222,1.5269 -0.32223,1.526887 0,2.2909 0,2.2909 2.01695,0 z m 6.627121,0 2.01695,0 0,-2.16101 0,-2.16102 -1.03137,0 -1.03137,0 0.18847,-0.93644 c 0.10366,-0.51504 0.25056,-1.157647 0.32643,-1.428017 l 0.13796,-0.49158 0.87823,-0.73898 0.87822,-0.73898 -0.47126,-0.71923 -0.47125,-0.71923 -0.52692,0.282 c -0.28981,0.1551 -0.92661,0.73722 -1.41513,1.29361 l -0.8882,1.01161 -0.30225,1.08838 -0.30225,1.088387 -0.002,2.66525 -0.002,2.66525 2.01695,0 z"
       id="path2991"
       inkscape:connector-curvature="0" />
    <text
       sodipodi:linespacing="125%"
       id="text2993"
       y="128.12662"
       x="91.841278"
       style="font-size:44.28661728px;font-style:normal;font-weight:normal;line-height:125%;letter-spacing:0px;word-spacing:0px;fill:#000000;fill-opacity:1;stroke:none;font-family:Sans"
       xml:space="preserve"><tspan
         y="128.12662"
         x="91.841278"
         id="tspan2995"
         sodipodi:role="line">“”</tspan></text>
  </g>
</svg>
